<?xml version="1.0" encoding="utf-8"?>
<!-- Svg Vector Icons : http://www.onlinewebfonts.com/icon -->
<!DOCTYPE svg PUBLIC "-//W3C//DTD SVG 1.1//EN" "http://www.w3.org/Graphics/SVG/1.1/DTD/svg11.dtd">
<svg version="1.1" xmlns="http://www.w3.org/2000/svg" xmlns:xlink="http://www.w3.org/1999/xlink" x="0px" y="0px" viewBox="0 0 1000 1000" enable-background="new 0 0 1000 1000" xml:space="preserve">
<metadata> Svg Vector Icons : http://www.onlinewebfonts.com/icon </metadata>
<g><path d="M990,860.3c0,25.3-20.3,45.8-45.5,46v0.5H56.4v-0.5c-0.1,0-0.3,0.1-0.4,0.1c-25.4,0-45.9-20.6-45.9-46c0-9.3,2.8-17.9,7.5-25.1l-0.3-0.2L461.3,114l0.2,0.2c8.2-12.6,22.3-20.9,38.4-20.9c16.7,0,31.2,9,39.2,22.4l0.3-0.2l444.1,721l-0.3,0.1C987.5,843.6,990,851.6,990,860.3z M561.3,354.1c0-33.9-27.4-61.4-61.3-61.4c-33.8,0-61.3,27.5-61.3,61.4v230.1c0,33.9,27.4,61.4,61.3,61.4c33.8,0,61.3-27.5,61.3-61.4V354.1z M500,691.5c-33.8,0-61.3,27.5-61.3,61.4c0,33.9,27.4,61.4,61.3,61.4c33.8,0,61.3-27.5,61.3-61.4C561.3,719,533.8,691.5,500,691.5z" fill="#E84A5F"/></g>
</svg>